# This file uses centimeters as units for non-parametric coordinates.

g default
v -0.150561 0.035463 -0.586926
v -0.433013 0.035463 -0.423853
v -0.153046 1.679023 -0.588361
v -0.433013 1.679024 -0.426722
v -0.433013 0.035463 0.423853
v -0.150561 0.035463 0.586926
v -0.433013 1.679023 0.426722
v -0.153046 1.679024 0.588361
v 0.583574 0.035463 0.163074
v 0.583574 0.035463 -0.163074
v 0.586058 1.679023 0.161639
v 0.586058 1.679024 -0.161639
v 0.094151 2.323258 -0.163074
v -0.188301 2.323258 -0.000000
v 0.094151 2.323258 0.163074
vt 0.976774 0.459007
vt 0.749989 0.843755
vt 0.937278 0.660491
vt 0.360370 0.458579
vt 0.684923 0.589927
vt 0.668572 0.458524
vt 0.445276 0.026982
vt 0.112333 0.505519
vt 0.253177 0.721489
vt 0.306049 0.651496
vt 0.136321 0.027428
vt 0.563516 0.637464
vt 0.340227 0.732274
vt 0.754232 0.027076
vt 0.223696 0.962273
vt 0.896574 0.589963
vt 0.754204 0.458604
vt 0.446002 0.458509
vt 0.137800 0.458953
vt 0.831420 0.843769
vt 0.644195 0.660441
vt 0.042857 0.634585
vt 0.669353 0.026996
vt 0.370199 0.957858
vt 0.978308 0.027481
vt 0.486498 0.512790
vt 0.360397 0.027051
vt 0.052168 0.459172
vt 0.051442 0.027644
vn 0.000000 -1.000000 0.000000
vn 0.000000 -1.000000 -0.000000
vn 0.000000 -1.000000 -0.000000
vn 0.000000 -1.000000 -0.000000
vn 0.000000 -1.000000 0.000000
vn 0.000000 -1.000000 0.000000
vn -0.500000 -0.001512 -0.866024
vn -0.500000 -0.001512 -0.866024
vn -0.499999 -0.001512 -0.866024
vn -0.499999 -0.001512 -0.866024
vn -0.397398 0.606872 -0.688317
vn -0.397399 0.606872 -0.688317
vn -0.397399 0.606872 -0.688317
vn -0.397400 0.606873 -0.688316
vn -0.499999 -0.001512 0.866024
vn -0.499999 -0.001512 0.866024
vn -0.500000 -0.001512 0.866024
vn -0.500000 -0.001512 0.866024
vn -0.397401 0.606872 0.688316
vn -0.397401 0.606872 0.688316
vn -0.397400 0.606872 0.688316
vn -0.397400 0.606872 0.688316
vn 0.999999 -0.001512 0.000000
vn 0.999999 -0.001512 0.000000
vn 0.999999 -0.001512 0.000000
vn 0.999999 -0.001512 0.000000
vn 0.794800 0.606872 0.000002
vn 0.794800 0.606872 0.000002
vn 0.794799 0.606872 0.000001
vn 0.794799 0.606872 -0.000000
vn -0.997055 0.076690 0.000000
vn -1.000000 0.000000 -0.000000
vn -0.997046 0.076814 0.000000
vn -1.000000 0.000000 -0.000000
vn 0.498528 0.076690 0.863475
vn 0.500000 0.000000 0.866025
vn 0.498523 0.076814 0.863467
vn 0.500000 0.000000 0.866025
vn 0.498528 0.076690 -0.863475
vn 0.500000 -0.000000 -0.866025
vn 0.498523 0.076814 -0.863467
vn 0.500000 -0.000000 -0.866025
vn -0.934831 0.355094 0.000000
vn 0.467416 0.355094 0.809587
vn 0.467415 0.355094 -0.809587
vn 0.000000 1.000000 0.000000
vn 0.000000 1.000000 0.000000
vn 0.000000 1.000000 0.000000
s 1
g pSphere1
f 6/20/1 5/2/2 9/3/3
f 5/2/2 2/21/4 9/3/3
f 2/21/4 1/5/5 9/3/3
f 1/5/5 10/16/6 9/3/3
s 2
f 1/18/7 2/4/8 3/7/9
f 3/7/9 2/4/8 4/27/10
s 3
f 3/22/11 4/8/12 13/9/13
f 13/9/13 4/8/12 14/10/14
s 4
f 5/19/15 6/28/16 7/11/17
f 7/11/17 6/28/16 8/29/18
s 5
f 7/26/19 8/12/20 14/10/21
f 14/10/21 8/12/20 15/13/22
s 6
f 9/17/23 10/6/24 11/14/25
f 11/14/25 10/6/24 12/23/26
s 7
f 11/24/27 12/15/28 15/13/29
f 15/13/29 12/15/28 13/9/30
s 8
f 4/27/31 2/4/32 7/11/33
f 7/11/33 2/4/32 5/19/34
s 9
f 8/25/35 6/1/36 11/14/37
f 11/14/37 6/1/36 9/17/38
s 10
f 12/23/39 10/6/40 3/7/41
f 3/7/41 10/6/40 1/18/42
s 8
f 4/8/31 7/26/33 14/10/43
s 9
f 8/12/35 11/24/37 15/13/44
s 10
f 12/15/39 3/22/41 13/9/45
s off
f 13/9/46 14/10/47 15/13/48
